<svg id="dns-24px" xmlns="http://www.w3.org/2000/svg" width="39.924" height="39.924" viewBox="0 0 39.924 39.924">
  <path id="Path_1" data-name="Path 1" d="M0,0H39.924V39.924H0Z" fill="none"/>
  <path id="Path_2" data-name="Path 2" d="M31.28,19.635H4.664A1.668,1.668,0,0,0,3,21.3V31.28a1.668,1.668,0,0,0,1.664,1.664H31.28a1.668,1.668,0,0,0,1.664-1.664V21.3A1.668,1.668,0,0,0,31.28,19.635ZM9.654,29.616a3.327,3.327,0,1,1,3.327-3.327A3.337,3.337,0,0,1,9.654,29.616ZM31.28,3H4.664A1.668,1.668,0,0,0,3,4.664v9.981a1.668,1.668,0,0,0,1.664,1.664H31.28a1.668,1.668,0,0,0,1.664-1.664V4.664A1.668,1.668,0,0,0,31.28,3ZM9.654,12.981a3.327,3.327,0,1,1,3.327-3.327A3.337,3.337,0,0,1,9.654,12.981Z" transform="translate(1.991 1.991)" fill="#d1cfcf"/>
</svg>
